<svg xmlns="http://www.w3.org/2000/svg" xmlns:xlink="http://www.w3.org/1999/xlink" width="254.666" height="48.193" viewBox="0 0 254.666 48.193">
  <defs>
    <radialGradient id="radial-gradient" cx="0.5" cy="0.5" r="0.403" gradientUnits="objectBoundingBox">
      <stop offset="0" stop-color="#4186df"/>
      <stop offset="1" stop-color="#2034db"/>
    </radialGradient>
  </defs>
  <g id="ENVIROLEAK_LOGO_LANDSCAPE_COLOUR" data-name="ENVIROLEAK LOGO_LANDSCAPE_COLOUR" transform="translate(119.996 -308)">
    <path id="Path_16205" data-name="Path 16205" d="M-64.407,337.537a18.023,18.023,0,0,0-2.743-9.586,48.09,48.09,0,0,0-4.676-7.241L-82.517,308l-.022.156L-82.56,308l-6.344,7.545c-4.607,11.419,2.851,18.04,2.851,18.04,12.515,12.286,7.285,20.463,6.2,21.884a18.134,18.134,0,0,0,15.445-17.928Z" transform="translate(-16.767)" fill="url(#radial-gradient)"/>
    <path id="Path_16206" data-name="Path 16206" d="M-104.219,344s-6.76-6-3.315-16.42c.191-.572.407-1.157.659-1.755.069-.169.143-.334.221-.507,0,0-21.035,16.485-10.279,32.649a20.656,20.656,0,0,0,3.64,3.792,22.126,22.126,0,0,0,12.381,4.247c-.156-.13-.312-.264-.464-.4-.113-.1-.225-.2-.338-.295a33.651,33.651,0,0,1-9.235-13.222,26.69,26.69,0,0,1-1.075-3.839c-.156-.715-.264-1.517-.355-2.24a26.533,26.533,0,0,1,.156-6.734l.191-1.1c.108-.659.351-1.517.5-2.171-.091.667-.247,1.543-.295,2.2-.026.412-.117,1.261-.113,1.655-.377,9.252,4.386,17.174,11.544,22.725a30.469,30.469,0,0,0,2.925,2.015c1.543-2.769,3.865-10.188-6.747-20.606Z" transform="translate(0 -9.814)" fill="#cde630"/>
    <g id="Group_1918" data-name="Group 1918" transform="translate(-65.599 315.354)">
      <path id="Path_16207" data-name="Path 16207" d="M12.2,339.223v5.538h8.931v5.148H12.2v6.006H22.3v5.343H5.53V333.88H22.3v5.343Z" transform="translate(-5.53 -330.019)" fill="#000f35"/>
      <path id="Path_16208" data-name="Path 16208" d="M73.582,348.774a9.66,9.66,0,0,1,2.284,6.808V368.3h-6.63V356.479a4.776,4.776,0,0,0-1.131-3.393,4.432,4.432,0,0,0-6.084,0,4.776,4.776,0,0,0-1.131,3.393V368.3H54.22V346.534h6.669v2.886a7.078,7.078,0,0,1,2.73-2.284,8.678,8.678,0,0,1,3.861-.836A7.9,7.9,0,0,1,73.582,348.774Z" transform="translate(-33.12 -337.057)" fill="#000f35"/>
      <path id="Path_16209" data-name="Path 16209" d="M121.956,362.363l4.719-15.523h7.1L126.052,368.6h-8.229L110.1,346.84h7.137Z" transform="translate(-64.784 -337.363)" fill="#000f35"/>
      <path id="Path_16210" data-name="Path 16210" d="M170.884,331.15a3.346,3.346,0,0,1-1.114-2.552,3.445,3.445,0,0,1,1.114-2.6,4.046,4.046,0,0,1,2.869-1.031A3.958,3.958,0,0,1,176.578,326a3.4,3.4,0,0,1,1.114,2.6,3.3,3.3,0,0,1-1.114,2.552,3.982,3.982,0,0,1-2.825,1.031A4.09,4.09,0,0,1,170.884,331.15Zm6.18,3.3V356.21h-6.669V334.447Z" transform="translate(-98.596 -324.97)" fill="#000f35"/>
      <path id="Path_16211" data-name="Path 16211" d="M207.354,347.331a7.541,7.541,0,0,1,3.9-1.031v7.059h-1.833a5.643,5.643,0,0,0-3.744,1.07c-.832.715-1.248,1.967-1.248,3.766v10.1H197.76V346.534h6.669v3.627a8.791,8.791,0,0,1,2.925-2.825Z" transform="translate(-114.457 -337.057)" fill="#000f35"/>
      <path id="Path_16212" data-name="Path 16212" d="M238.7,367.148a10,10,0,0,1-4.017-3.9,11.655,11.655,0,0,1-1.465-5.928,11.485,11.485,0,0,1,1.482-5.907,10.051,10.051,0,0,1,4.056-3.918,12.887,12.887,0,0,1,11.544,0,10.079,10.079,0,0,1,4.056,3.918,12.447,12.447,0,0,1-.017,11.813,10.12,10.12,0,0,1-4.1,3.917,12.246,12.246,0,0,1-5.79,1.365,12.033,12.033,0,0,1-5.755-1.365Zm9.009-5.811a5.577,5.577,0,0,0,1.343-4.017,5.681,5.681,0,0,0-1.3-4.017,4.224,4.224,0,0,0-3.215-1.4,4.28,4.28,0,0,0-3.237,1.387,6.978,6.978,0,0,0-.017,8.052,4.1,4.1,0,0,0,3.176,1.4A4.34,4.34,0,0,0,247.711,361.336Z" transform="translate(-134.55 -336.96)" fill="#000f35"/>
      <path id="Path_16213" data-name="Path 16213" d="M297.96,330.46v28.861h-2.73V330.46Z" transform="translate(-169.688 -328.081)" fill="#000f35"/>
      <path id="Path_16214" data-name="Path 16214" d="M333.4,359.218H315.735a8.571,8.571,0,0,0,1.17,4.134,6.894,6.894,0,0,0,2.769,2.6,8.1,8.1,0,0,0,3.744.88,7.512,7.512,0,0,0,4.464-1.287,6.067,6.067,0,0,0,2.4-3.471h2.886a9.016,9.016,0,0,1-3.337,5.088,10.2,10.2,0,0,1-6.414,1.967,10.784,10.784,0,0,1-5.382-1.343,9.5,9.5,0,0,1-3.722-3.822,11.939,11.939,0,0,1-1.343-5.79,12.207,12.207,0,0,1,1.326-5.811A9.217,9.217,0,0,1,318,348.536a10.945,10.945,0,0,1,5.421-1.326,10.4,10.4,0,0,1,5.322,1.326,9.188,9.188,0,0,1,3.51,3.566,10.185,10.185,0,0,1,1.226,4.975q0,1.4-.078,2.145Zm-3.644-6.279a6.454,6.454,0,0,0-2.713-2.535,8.253,8.253,0,0,0-3.744-.858,7.438,7.438,0,0,0-5.187,1.95,7.789,7.789,0,0,0-2.379,5.5h14.977A7.566,7.566,0,0,0,329.758,352.939Z" transform="translate(-179.74 -337.572)" fill="#000f35"/>
      <path id="Path_16215" data-name="Path 16215" d="M370.244,352.36a9.357,9.357,0,0,1,3.627-3.822,10.258,10.258,0,0,1,5.244-1.348,9.759,9.759,0,0,1,5.248,1.4,8.166,8.166,0,0,1,3.176,3.588V347.5h2.73V368.8h-2.73v-4.719a8.57,8.57,0,0,1-3.215,3.605,9.454,9.454,0,0,1-5.248,1.426,10.057,10.057,0,0,1-5.2-1.365,9.46,9.46,0,0,1-3.627-3.861,12.268,12.268,0,0,1-1.3-5.772,12.142,12.142,0,0,1,1.3-5.751Zm16.246,1.27a7.518,7.518,0,0,0-2.869-3,7.822,7.822,0,0,0-4-1.053,8.25,8.25,0,0,0-4.056,1.014,7.213,7.213,0,0,0-2.83,2.942,10.706,10.706,0,0,0,0,9.17,7.241,7.241,0,0,0,2.83,3,7.976,7.976,0,0,0,4.056,1.031,7.676,7.676,0,0,0,4-1.053,7.518,7.518,0,0,0,2.869-3,10.245,10.245,0,0,0,0-9.048Z" transform="translate(-211.456 -337.561)" fill="#000f35"/>
      <path id="Path_16216" data-name="Path 16216" d="M444.076,359.321l-8.775-9.555v9.555h-2.73V330.46h2.73v17.083l8.58-9.516H447.7l-10.1,10.608,10.179,10.686Z" transform="translate(-247.512 -328.081)" fill="#000f35"/>
    </g>
  </g>
</svg>
